<?xml version="1.0" standalone="no"?>
<!DOCTYPE svg PUBLIC "-//W3C//DTD SVG 20010904//EN"
 "http://www.w3.org/TR/2001/REC-SVG-20010904/DTD/svg10.dtd">
<svg version="1.0" xmlns="http://www.w3.org/2000/svg"
 width="480.000000pt" height="480.000000pt" viewBox="0 0 480.000000 480.000000"
 preserveAspectRatio="xMidYMid meet">
<metadata>
Created by potrace 1.14, written by Peter Selinger 2001-2017
</metadata>
<g transform="translate(0.000000,480.000000) scale(0.100000,-0.100000)"
fill="#000000" stroke="none">
<path d="M2135 4719 c-330 -48 -541 -114 -809 -250 -265 -136 -481 -308 -713
-571 -136 -154 -300 -429 -379 -635 -14 -38 -32 -84 -39 -103 -24 -60 -65
-213 -81 -297 -2 -13 -7 -35 -10 -50 -3 -16 -7 -39 -9 -53 -10 -74 -17 -140
-20 -180 -6 -65 -6 -330 -1 -360 3 -14 7 -55 11 -92 7 -74 9 -89 31 -198 44
-217 149 -499 247 -664 16 -28 39 -67 49 -86 25 -44 151 -221 181 -254 12 -14
51 -58 87 -98 220 -248 546 -472 876 -601 77 -31 228 -78 290 -92 105 -23 167
-35 209 -41 28 -3 59 -9 70 -12 11 -3 124 -6 250 -8 219 -2 334 7 488 40 15 3
39 9 55 12 15 3 68 17 117 30 434 122 848 387 1136 729 19 22 36 42 39 45 11
11 69 88 111 150 169 246 297 539 355 814 10 47 33 174 40 221 17 110 9 530
-12 650 -109 621 -411 1121 -904 1499 -293 224 -684 389 -1047 441 -23 3 -57
9 -75 12 -55 9 -479 11 -543 2z"/>
</g>
</svg>
