<svg id="ew0gryWetb31" xmlns="http://www.w3.org/2000/svg" xmlns:xlink="http://www.w3.org/1999/xlink" viewBox="0 0 640 480" shape-rendering="geometricPrecision" text-rendering="geometricPrecision"><ellipse id="ew0gryWetb32" rx="115.162676" ry="115.162676" transform="matrix(1.669698 0 0 1.669698 320 239.145737)" fill="rgb(0,154,154)" stroke="none" stroke-width="0" stroke-miterlimit="1"/><ellipse id="ew0gryWetb33" rx="78.084715" ry="78.084715" transform="matrix(0.794082 0 0 0.762864 390.872372 166.396087)" fill="rgb(0,205,102)" stroke="none" stroke-width="0" stroke-miterlimit="1"/><polygon id="ew0gryWetb34" display="none" points="0,-77.786087 67.364727,38.893043 -67.364727,38.893043 0,-77.786087" transform="matrix(0.722639 -0.234829 0.213775 0.657848 252.431071 179.188951)" fill="rgb(0,205,102)" stroke="none" stroke-width="0" stroke-miterlimit="1"/><polygon id="ew0gryWetb35" points="0,-77.786087 67.364727,38.893043 -67.364727,38.893043 0,-77.786087" transform="matrix(-0.942146 0 0 -0.872813 269.527083 293.214813)" fill="rgb(0,205,102)" stroke="none" stroke-width="0" stroke-miterlimit="1"/><path id="ew0gryWetb36" display="none" d="M295.2845,285.74051L320,285.74051L320,304.93524L313.33573,304.93524L313.33573,322.39019L304.08342,322.39019L304.08342,331.98756L299.94998,331.98756L299.94998,338.17667L308.09812,338.17667L308.09812,354.02028L307.77149,354.02028L307.77149,374.39063L288.22576,374.39063C286.94289,373.44212,285.70393,372.43762,284.51247,371.38076L284.51247,354.02028L277.23328,354.02028L277.23328,338.17667L291.19044,338.17667L291.19044,331.98756L287.09637,331.98756L287.09637,322.39019L277.23328,322.39019L277.23328,304.93524L273.46227,304.93524C278.54958,295.98974,286.14171,288.65446,295.2845,283.88355L295.2845,285.74051ZM299.94998,374.39064L299.94998,380.96016C295.75075,379.26158,291.81631,377.04537,288.22577,374.39064L299.94998,374.39064ZM371.38749,316.68212L371.46554,316.68212C372.79044,321.34154,373.49965,326.26015,373.49965,331.3444C373.49965,334.30423,373.25929,337.20792,372.79703,340.03703L359.76864,340.03703L359.76864,346.71398L357.9699,346.71398L357.9699,367.37419L349.15816,367.37419L349.15816,376.20733C347.72193,377.14271,346.23799,378.01098,344.7108,378.80771L336.10833,378.80771L336.10833,361.03675L332.10706,361.03675L332.10706,358.64536L324.52296,358.64536L324.52296,336.72035L332.10706,336.72035L332.10706,334.32896L343.7259,334.32896L343.7259,333.36009L357.9699,333.36009L357.9699,318.63369L351.74727,318.63369L351.74727,324.32797L336.10833,324.32797L336.10833,331.98757L324.52296,331.98757L324.52296,312.28931L332.10706,312.28931L332.10706,284.8696L346.51952,284.8696C358.43883,291.68568,367.48388,302.95502,371.38748,316.41038L371.38749,316.68212Z" fill="rgb(128,64,0)" stroke="none" stroke-width="0" stroke-miterlimit="1"/><ellipse id="ew0gryWetb37" rx="47.302951" ry="47.302951" transform="matrix(0.966982 0 0 0.966982 390.872372 166.39609)" fill="rgb(128,64,0)" stroke="none" stroke-width="0" stroke-miterlimit="1"/><rect id="ew0gryWetb38" width="183.420198" height="26.187409" rx="0" ry="0" transform="matrix(0.490634 0.294499 -0.294499 0.490634 362.885798 243.32246)" fill="rgb(0,205,102)" stroke="none" stroke-width="0" stroke-miterlimit="1"/><rect id="ew0gryWetb39" width="63.245696" height="63.245696" rx="0" ry="0" transform="matrix(1.079515 -0.623258 0.623258 1.079515 195.971373 160.073374)" fill="rgb(0,205,102)" stroke="none" stroke-width="0" stroke-miterlimit="1"/></svg>